<svg width="450" height="170" viewBox="0 0 450 170" fill="none" xmlns="http://www.w3.org/2000/svg">
<g clip-path="url(#clip0_153_4)">
<path d="M96.76 133.19C89.8967 133.19 84.6283 131.547 80.955 128.26C77.2817 124.973 75.445 120.768 75.445 115.645C75.445 110.425 77.7167 106.172 82.26 102.885C86.9 99.5983 92.3133 97.2783 98.5 95.925C97.4367 94.185 93.6183 88.4817 87.045 78.815C83.0817 79.685 79.2633 80.12 75.59 80.12C67.47 80.12 61.09 78.0417 56.45 73.885C51.9067 69.6317 49.635 63.88 49.635 56.63C49.635 53.5367 50.07 50.0083 50.94 46.045L51.23 44.305C55.1933 44.4017 58.4317 44.9817 60.945 46.045C59.3017 49.815 58.48 53.73 58.48 57.79C58.48 61.85 59.9783 65.1367 62.975 67.65C65.9717 70.0667 69.645 71.275 73.995 71.275C76.025 71.275 78.5867 70.9367 81.68 70.26C77.33 62.72 75.155 56.1467 75.155 50.54C75.155 43.29 78.1033 37.5867 84 33.43C89.8967 29.1767 96.5667 27.05 104.01 27.05C111.55 27.05 117.35 28.79 121.41 32.27C125.567 35.6533 127.645 39.9067 127.645 45.03C127.645 50.0567 125.76 54.745 121.99 59.095C118.22 63.3483 114.015 66.8283 109.375 69.535C116.335 78.4283 121.023 87.4667 123.44 96.65C131.56 97.7133 139.583 99.695 147.51 102.595C146.157 107.428 144.9 110.908 143.74 113.035C141.613 111.392 138.713 109.748 135.04 108.105C131.367 106.462 127.935 105.447 124.745 105.06V105.205C124.745 112.842 121.797 119.415 115.9 124.925C110.1 130.435 103.72 133.19 96.76 133.19ZM103.72 61.705C107.49 59.965 110.825 57.5483 113.725 54.455C116.722 51.265 118.22 48.2683 118.22 45.465C118.22 42.6617 117.108 40.535 114.885 39.085C112.758 37.5383 110.003 36.765 106.62 36.765C103.237 36.765 100.433 37.49 98.21 38.94C96.0833 40.39 95.02 42.3233 95.02 44.74C95.02 46.2867 95.4067 47.8817 96.18 49.525C96.9533 51.1683 97.5817 52.4733 98.065 53.44C98.5483 54.4067 99.1283 55.3733 99.805 56.34C100.482 57.3067 101.013 58.08 101.4 58.66C101.883 59.24 102.657 60.255 103.72 61.705ZM93.28 122.46C95.89 122.46 98.1617 121.252 100.095 118.835C102.125 116.322 103.14 113.76 103.14 111.15C103.14 108.443 102.85 106.172 102.27 104.335C98.4033 104.335 94.585 105.398 90.815 107.525C87.045 109.652 85.16 112.165 85.16 115.065C85.16 117.095 85.885 118.835 87.335 120.285C88.785 121.735 90.7667 122.46 93.28 122.46ZM178.369 73.015C174.502 73.015 171.409 76.2533 169.089 82.73C166.769 89.11 165.609 95.9733 165.609 103.32C165.609 114.92 169.186 120.72 176.339 120.72C178.659 120.72 181.124 120.188 183.734 119.125C186.344 117.965 188.422 116.853 189.969 115.79L192.144 114.05L195.479 118.545C194.706 119.608 193.159 121.01 190.839 122.75C188.519 124.49 186.344 125.94 184.314 127.1C182.284 128.26 179.674 129.323 176.484 130.29C173.294 131.257 170.152 131.74 167.059 131.74C159.519 131.74 153.864 129.275 150.094 124.345C146.324 119.415 144.439 112.793 144.439 104.48C144.439 92.9767 147.581 83.6483 153.864 76.495C160.244 69.3417 168.412 65.765 178.369 65.765C184.846 65.765 189.969 67.2633 193.739 70.26C197.606 73.16 199.539 76.785 199.539 81.135C199.539 85.3883 198.186 89.0617 195.479 92.155C193.062 92.155 190.259 91.6233 187.069 90.56C183.879 89.4967 181.462 88.1917 179.819 86.645L181.994 73.885C181.124 73.305 179.916 73.015 178.369 73.015ZM205.551 130.435H204.536C204.342 129.662 204.246 127.922 204.246 125.215C204.246 122.412 205.551 114.968 208.161 102.885C210.771 90.8017 212.076 83.89 212.076 82.15C212.076 79.1533 210.722 75.8667 208.016 72.29L206.711 70.55L206.856 68.665C212.076 67.215 220.437 66.49 231.941 66.49C233.101 69.0033 233.681 72.5317 233.681 77.075C234.744 75.335 236.967 73.015 240.351 70.115C243.734 67.215 247.214 65.765 250.791 65.765C256.011 65.765 258.621 70.3083 258.621 79.395C258.137 79.975 257.461 80.7483 256.591 81.715C255.817 82.585 254.174 83.8417 251.661 85.485C249.244 87.1283 246.876 88.1433 244.556 88.53C244.459 88.53 243.637 87.225 242.091 84.615C240.544 82.005 239.384 80.7 238.611 80.7C236.194 81.57 234.067 83.02 232.231 85.05C227.784 105.06 225.561 118.013 225.561 123.91C225.561 126.037 225.609 127.535 225.706 128.405C222.322 129.758 215.604 130.435 205.551 130.435ZM266.95 130.58C258.927 130.58 254.915 126.133 254.915 117.24C254.915 115.113 255.882 108.975 257.815 98.825C259.749 88.675 260.715 80.2167 260.715 73.45C260.715 72 260.522 70.6467 260.135 69.39C265.355 67.36 272.509 66.345 281.595 66.345C282.079 67.6983 282.32 70.0183 282.32 73.305C282.32 76.5917 281.257 83.165 279.13 93.025C277.004 102.885 275.94 109.313 275.94 112.31C275.94 115.307 276.714 116.805 278.26 116.805C282.514 116.805 286.622 115.307 290.585 112.31C290.875 108.733 292.809 94.185 296.385 68.665C299.769 67.3117 305.859 66.635 314.655 66.635H317.41C316.25 71.1783 314.317 82.6817 311.61 101.145C309 119.512 307.115 131.16 305.955 136.09C304.795 141.02 303.2 145.37 301.17 149.14C299.237 152.91 296.82 155.713 293.92 157.55C291.117 159.483 288.265 160.788 285.365 161.465C282.465 162.142 278.695 162.48 274.055 162.48C269.512 162.48 265.162 160.982 261.005 157.985C256.945 155.085 254.915 152.572 254.915 150.445C254.915 149.092 256.607 147.013 259.99 144.21C263.47 141.407 266.37 139.667 268.69 138.99C273.62 143.92 277.245 149.285 279.565 155.085C282.079 155.085 284.302 152.088 286.235 146.095C288.169 140.102 289.474 131.305 290.15 119.705C287.83 122.025 284.302 124.442 279.565 126.955C274.829 129.372 270.624 130.58 266.95 130.58ZM331.77 131.74C328.483 131.74 325.728 130.628 323.505 128.405C321.378 126.182 320.315 123.088 320.315 119.125C320.315 115.065 322.683 102.257 327.42 80.7C332.253 59.0467 334.67 43.435 334.67 33.865L333.8 27.485C341.34 24.875 348.397 23.57 354.97 23.57C355.937 24.9233 356.42 27.2917 356.42 30.675C356.42 38.4083 353.955 53.3917 349.025 75.625C344.192 97.7617 341.775 110.667 341.775 114.34C341.775 117.917 342.21 119.705 343.08 119.705L353.23 116.08L355.84 121.155C352.553 123.765 348.542 126.182 343.805 128.405C339.165 130.628 335.153 131.74 331.77 131.74ZM370.286 131.74C366.999 131.74 364.244 130.628 362.021 128.405C359.894 126.182 358.831 123.088 358.831 119.125C358.831 115.065 361.199 102.257 365.936 80.7C370.769 59.0467 373.186 43.435 373.186 33.865L372.316 27.485C379.856 24.875 386.912 23.57 393.486 23.57C394.452 24.9233 394.936 27.2917 394.936 30.675C394.936 38.4083 392.471 53.3917 387.541 75.625C382.707 97.7617 380.291 110.667 380.291 114.34C380.291 117.917 380.726 119.705 381.596 119.705L391.746 116.08L394.356 121.155C391.069 123.765 387.057 126.182 382.321 128.405C377.681 130.628 373.669 131.74 370.286 131.74Z" fill="#38BDF8"/>
</g>
<defs>
<clipPath id="clip0_153_4">
<rect width="450" height="170" fill="white"/>
</clipPath>
</defs>
</svg>
